<svg width="24" height="24" viewBox="0 0 24 24" fill="none" xmlns="http://www.w3.org/2000/svg">
<path d="M12.0001 4.47998C11.2445 4.47998 10.506 4.70402 9.87778 5.12377C9.24958 5.54351 8.75996 6.14012 8.47084 6.83813C8.18171 7.53614 8.10606 8.30422 8.25346 9.04523C8.40085 9.78623 8.76467 10.4669 9.29891 11.0011C9.83314 11.5354 10.5138 11.8992 11.2548 12.0466C11.9958 12.194 12.7639 12.1183 13.4619 11.8292C14.1599 11.5401 14.7565 11.0505 15.1763 10.4223C15.596 9.79406 15.8201 9.05551 15.8201 8.29998C15.8201 7.28685 15.4176 6.31522 14.7012 5.59883C13.9848 4.88244 13.0132 4.47998 12.0001 4.47998V4.47998ZM12.0001 10.7866C11.5082 10.7866 11.0275 10.6408 10.6185 10.3676C10.2096 10.0943 9.89088 9.70597 9.70268 9.25159C9.51447 8.79721 9.46522 8.29722 9.56117 7.81486C9.65712 7.33249 9.89395 6.88941 10.2417 6.54164C10.5895 6.19388 11.0326 5.95704 11.5149 5.86109C11.9973 5.76515 12.4973 5.81439 12.9517 6.0026C13.406 6.19081 13.7944 6.50953 14.0676 6.91846C14.3409 7.32739 14.4867 7.80816 14.4867 8.29998C14.485 8.95833 14.2222 9.58911 13.756 10.054C13.2899 10.5189 12.6584 10.78 12.0001 10.78V10.7866Z" fill="white"/>
<path d="M19.8467 8.99322C19.3943 8.98064 18.9458 8.90663 18.5134 8.77322V9.15321C18.5134 11.8599 16.9 14.2665 15.72 16.0265L15.48 16.3799C14.3334 18.0999 12.8134 20.0265 11.9934 20.9799C11.2067 20.0265 9.65337 18.0999 8.50671 16.3799L8.28004 15.9999C7.10004 14.2399 5.48004 11.8332 5.48004 9.12655C5.48408 8.00555 5.77738 6.90458 6.33156 5.93013C6.88573 4.95569 7.68202 4.14077 8.64339 3.56422C9.60476 2.98767 10.6987 2.66899 11.8193 2.63904C12.9399 2.60908 14.0492 2.86885 15.04 3.39322C15.0931 2.93482 15.2098 2.48606 15.3867 2.05988C14.1895 1.48167 12.8649 1.21769 11.5375 1.29278C10.2101 1.36787 8.92369 1.77958 7.79936 2.48912C6.67503 3.19866 5.74979 4.18269 5.11077 5.34855C4.47175 6.51441 4.13998 7.82373 4.14671 9.15321C4.14671 12.2665 5.89337 14.8732 7.17337 16.7732L7.40671 17.1199C8.68023 18.9656 10.0464 20.7457 11.5 22.4532L12.0067 23.0465L12.5134 22.4532C13.9668 20.7455 15.333 18.9655 16.6067 17.1199L16.84 16.7665C18.1134 14.8665 19.86 12.2665 19.86 9.15321C19.8534 9.09988 19.8467 9.04655 19.8467 8.99322V8.99322Z" fill="white"/>
<path d="M20 7.33341C21.8409 7.33341 23.3333 5.84103 23.3333 4.00008C23.3333 2.15913 21.8409 0.666748 20 0.666748C18.159 0.666748 16.6666 2.15913 16.6666 4.00008C16.6666 5.84103 18.159 7.33341 20 7.33341Z" fill="white"/>
</svg>
