<svg width="24" height="24" viewBox="0 0 24 24" fill="none" xmlns="http://www.w3.org/2000/svg">
<path d="M21.75 12.635V5.19995C21.75 4.93473 21.6446 4.68038 21.4571 4.49284C21.2696 4.30531 21.0152 4.19995 20.75 4.19995H3.25C2.98478 4.19995 2.73043 4.30531 2.54289 4.49284C2.35536 4.68038 2.25 4.93473 2.25 5.19995V18.8C2.25 19.0652 2.35536 19.3195 2.54289 19.5071C2.73043 19.6946 2.98478 19.8 3.25 19.8H16.8825M2.25 7.81795H21.75" stroke="white" stroke-linecap="round" stroke-linejoin="round"/>
<path d="M18.744 20.8V11.4485M18.744 20.8C19.7859 20.4815 20.7137 19.8688 21.4156 19.0355C22.1175 18.2022 22.5637 17.1839 22.7005 16.103C22.7678 15.1426 22.7621 14.1785 22.6835 13.219C22.673 13.0678 22.6065 12.9259 22.4971 12.8211C22.3876 12.7163 22.243 12.656 22.0915 12.652C20.9911 12.7002 19.915 12.3197 19.0895 11.5905C18.9975 11.4998 18.8735 11.449 18.7443 11.449C18.6151 11.449 18.4911 11.4998 18.399 11.5905C17.5735 12.3197 16.4974 12.7002 15.397 12.652C15.2455 12.656 15.1009 12.7163 14.9915 12.8211C14.882 12.9259 14.8155 13.0678 14.805 13.219C14.7264 14.1785 14.7207 15.1426 14.788 16.103C14.9248 17.1838 15.3709 18.2021 16.0727 19.0354C16.7746 19.8687 17.7022 20.4814 18.744 20.8V20.8Z" stroke="white" stroke-linecap="round" stroke-linejoin="round"/>
</svg>
